<svg width="466" height="466" viewBox="0 0 466 466" fill="none" xmlns="http://www.w3.org/2000/svg">
<ellipse cx="192" cy="261" rx="178" ry="74" fill="#FFCB7D"/>
<ellipse cx="247.5" cy="339" rx="180.5" ry="75" fill="#FFCB7D"/>
<g opacity="0.4">
<g opacity="0.4">
<g opacity="0.4">
<g opacity="0.4">
<path opacity="0.4" d="M126.053 106.295L141.664 133.323L126.053 160.351H94.8776L79.2666 133.323L94.8776 106.295H126.053Z" stroke="#424242" stroke-width="6" stroke-miterlimit="10"/>
</g>
</g>
</g>
<g opacity="0.4">
<g opacity="0.4">
<g opacity="0.4">
<path opacity="0.4" d="M180.109 137.47L195.673 164.498L180.109 191.526H148.934L133.323 164.498L148.934 137.47H180.109Z" fill="#424242" stroke="#424242" stroke-width="6" stroke-miterlimit="10"/>
</g>
<g opacity="0.4">
<path opacity="0.4" d="M180.109 199.821L195.673 226.849L180.109 253.877H148.934L133.323 226.849L148.934 199.821H180.109Z" stroke="#424242" stroke-width="6" stroke-miterlimit="10"/>
</g>
</g>
<g opacity="0.4">
<g opacity="0.4">
<path opacity="0.4" d="M234.165 106.295L249.729 133.323L234.165 160.351H202.99L187.379 133.323L202.99 106.295H234.165Z" stroke="#424242" stroke-width="6" stroke-miterlimit="10"/>
</g>
<g opacity="0.4">
<path opacity="0.4" d="M234.165 168.645L249.729 195.673L234.165 222.701H202.99L187.379 195.673L202.99 168.645H234.165Z" fill="#424242" stroke="#424242" stroke-width="6" stroke-miterlimit="10"/>
</g>
</g>
</g>
<g opacity="0.4">
<g opacity="0.4">
<g opacity="0.4">
<path opacity="0.4" d="M288.174 75.1192L303.785 102.147L288.174 129.175H256.999L241.435 102.147L256.999 75.1192H288.174Z" fill="#424242" stroke="#424242" stroke-width="6" stroke-miterlimit="10"/>
</g>
<g opacity="0.4">
<path opacity="0.4" d="M288.174 137.47L303.785 164.498L288.174 191.526H256.999L241.435 164.498L256.999 137.47H288.174Z" stroke="#424242" stroke-width="6" stroke-miterlimit="10"/>
</g>
<g opacity="0.4">
<path opacity="0.4" d="M288.174 199.821L303.785 226.849L288.174 253.877H256.999L241.435 226.849L256.999 199.821H288.174Z" stroke="#424242" stroke-width="6" stroke-miterlimit="10"/>
</g>
</g>
<g opacity="0.4">
<g opacity="0.4">
<path opacity="0.4" d="M342.23 168.645L357.841 195.673L342.23 222.701H311.055L295.491 195.673L311.055 168.645H342.23Z" fill="#424242" stroke="#424242" stroke-width="6" stroke-miterlimit="10"/>
</g>
</g>
</g>
<g opacity="0.4">
<g opacity="0.4">
<g opacity="0.4">
<path opacity="0.4" d="M396.286 75.1192L411.897 102.147L396.286 129.175H365.111L349.5 102.147L365.111 75.1192H396.286Z" fill="#424242" stroke="#424242" stroke-width="6" stroke-miterlimit="10"/>
</g>
<g opacity="0.4">
<path opacity="0.4" d="M396.286 137.47L411.897 164.498L396.286 191.526H365.111L349.5 164.498L365.111 137.47H396.286Z" stroke="#424242" stroke-width="6" stroke-miterlimit="10"/>
</g>
</g>
</g>
</g>
<path d="M396.1 356.956C391.207 356.956 387.246 352.995 387.246 348.102V278.668H404.954V348.102C404.954 352.995 400.993 356.956 396.1 356.956Z" fill="white"/>
<path d="M406.352 271.212H385.848C383.798 271.212 382.12 272.89 382.12 274.94C382.12 276.99 383.798 278.668 385.848 278.668H406.352C408.402 278.668 410.08 276.99 410.08 274.94C410.08 272.89 408.402 271.212 406.352 271.212Z" fill="#D8D8D8"/>
<path d="M396.1 356.956C391.207 356.956 387.246 352.995 387.246 348.102V278.668H404.954V348.102C404.954 352.995 400.993 356.956 396.1 356.956Z" stroke="#30292C" stroke-width="4" stroke-miterlimit="10" stroke-linecap="round" stroke-linejoin="round"/>
<path d="M406.352 271.212H385.848C383.798 271.212 382.12 272.89 382.12 274.94C382.12 276.99 383.798 278.668 385.848 278.668H406.352C408.402 278.668 410.08 276.99 410.08 274.94C410.08 272.89 408.402 271.212 406.352 271.212Z" stroke="#30292C" stroke-width="4" stroke-miterlimit="10" stroke-linecap="round" stroke-linejoin="round"/>
<path d="M391.44 322.938V348.102C391.44 350.665 393.537 352.762 396.1 352.762C398.663 352.762 400.76 350.665 400.76 348.102V322.938H391.44Z" fill="#FF415B"/>
<path d="M391.44 322.938V348.102C391.44 350.665 393.537 352.762 396.1 352.762C398.663 352.762 400.76 350.665 400.76 348.102V322.938H391.44Z" stroke="#30292C" stroke-width="4" stroke-miterlimit="10" stroke-linecap="round" stroke-linejoin="round"/>
<path d="M393.77 262.358C394.594 262.358 395.261 261.69 395.261 260.867C395.261 260.043 394.594 259.376 393.77 259.376C392.946 259.376 392.279 260.043 392.279 260.867C392.279 261.69 392.946 262.358 393.77 262.358Z" fill="#EC1CE4"/>
<path d="M387.945 247.679C389.798 247.679 391.3 246.177 391.3 244.324C391.3 242.471 389.798 240.969 387.945 240.969C386.092 240.969 384.59 242.471 384.59 244.324C384.59 246.177 386.092 247.679 387.945 247.679Z" fill="#FF415B"/>
<path d="M403.742 260.075C405.338 260.075 406.632 258.781 406.632 257.185C406.632 255.59 405.338 254.296 403.742 254.296C402.147 254.296 400.853 255.59 400.853 257.185C400.853 258.781 402.147 260.075 403.742 260.075Z" fill="#FF415B"/>
<path d="M393.77 262.358C394.594 262.358 395.261 261.69 395.261 260.867C395.261 260.043 394.594 259.376 393.77 259.376C392.946 259.376 392.279 260.043 392.279 260.867C392.279 261.69 392.946 262.358 393.77 262.358Z" stroke="#133B4F" stroke-width="4" stroke-miterlimit="10" stroke-linecap="round" stroke-linejoin="round"/>
<path d="M397.032 251.92C397.572 251.92 398.011 251.481 398.011 250.941C398.011 250.401 397.572 249.962 397.032 249.962C396.492 249.962 396.053 250.401 396.053 250.941C396.053 251.481 396.492 251.92 397.032 251.92Z" stroke="#133B4F" stroke-width="4" stroke-miterlimit="10" stroke-linecap="round" stroke-linejoin="round"/>
<path d="M387.945 247.679C389.798 247.679 391.3 246.177 391.3 244.324C391.3 242.471 389.798 240.969 387.945 240.969C386.092 240.969 384.59 242.471 384.59 244.324C384.59 246.177 386.092 247.679 387.945 247.679Z" stroke="#133B4F" stroke-width="4" stroke-miterlimit="10" stroke-linecap="round" stroke-linejoin="round"/>
<path d="M403.742 260.075C405.338 260.075 406.632 258.781 406.632 257.185C406.632 255.59 405.338 254.296 403.742 254.296C402.147 254.296 400.853 255.59 400.853 257.185C400.853 258.781 402.147 260.075 403.742 260.075Z" stroke="#133B4F" stroke-width="4" stroke-miterlimit="10" stroke-linecap="round" stroke-linejoin="round"/>
<path d="M394.469 307.84C396.322 307.84 397.824 306.337 397.824 304.484C397.824 302.631 396.322 301.129 394.469 301.129C392.616 301.129 391.114 302.631 391.114 304.484C391.114 306.337 392.616 307.84 394.469 307.84Z" fill="#FF415B"/>
<path d="M394.469 307.84C396.322 307.84 397.824 306.337 397.824 304.484C397.824 302.631 396.322 301.129 394.469 301.129C392.616 301.129 391.114 302.631 391.114 304.484C391.114 306.337 392.616 307.84 394.469 307.84Z" stroke="#30292C" stroke-width="4" stroke-miterlimit="10" stroke-linecap="round" stroke-linejoin="round"/>
<path d="M397.405 317.439C398.203 317.439 398.849 316.792 398.849 315.995C398.849 315.197 398.203 314.55 397.405 314.55C396.607 314.55 395.96 315.197 395.96 315.995C395.96 316.792 396.607 317.439 397.405 317.439Z" fill="#FF415B"/>
<path d="M397.405 317.439C398.203 317.439 398.849 316.792 398.849 315.995C398.849 315.197 398.203 314.55 397.405 314.55C396.607 314.55 395.96 315.197 395.96 315.995C395.96 316.792 396.607 317.439 397.405 317.439Z" stroke="#30292C" stroke-width="4" stroke-miterlimit="10" stroke-linecap="round" stroke-linejoin="round"/>
<path d="M399.269 287.196C400.375 287.196 401.273 286.299 401.273 285.192C401.273 284.085 400.375 283.188 399.269 283.188C398.162 283.188 397.265 284.085 397.265 285.192C397.265 286.299 398.162 287.196 399.269 287.196Z" fill="#FF415B"/>
<path d="M399.269 287.196C400.375 287.196 401.273 286.299 401.273 285.192C401.273 284.085 400.375 283.188 399.269 283.188C398.162 283.188 397.265 284.085 397.265 285.192C397.265 286.299 398.162 287.196 399.269 287.196Z" stroke="#30292C" stroke-width="4" stroke-miterlimit="10" stroke-linecap="round" stroke-linejoin="round"/>
<path d="M392.279 282.815C392.691 282.815 393.024 282.482 393.024 282.07C393.024 281.658 392.691 281.324 392.279 281.324C391.867 281.324 391.533 281.658 391.533 282.07C391.533 282.482 391.867 282.815 392.279 282.815Z" fill="#67CC70"/>
<path d="M392.279 282.815C392.691 282.815 393.024 282.482 393.024 282.07C393.024 281.658 392.691 281.324 392.279 281.324C391.867 281.324 391.533 281.658 391.533 282.07C391.533 282.482 391.867 282.815 392.279 282.815Z" stroke="#30292C" stroke-width="4" stroke-miterlimit="10" stroke-linecap="round" stroke-linejoin="round"/>
<path d="M396.659 330.953C397.071 330.953 397.405 330.619 397.405 330.208C397.405 329.796 397.071 329.462 396.659 329.462C396.247 329.462 395.914 329.796 395.914 330.208C395.914 330.619 396.247 330.953 396.659 330.953Z" fill="#30292C"/>
<path d="M392.652 339.248C393.321 339.248 393.863 338.706 393.863 338.036C393.863 337.367 393.321 336.825 392.652 336.825C391.982 336.825 391.44 337.367 391.44 338.036C391.44 338.706 391.982 339.248 392.652 339.248Z" fill="#30292C"/>
<path d="M398.104 345.865C399.082 345.865 399.875 345.072 399.875 344.094C399.875 343.116 399.082 342.324 398.104 342.324C397.126 342.324 396.333 343.116 396.333 344.094C396.333 345.072 397.126 345.865 398.104 345.865Z" fill="#30292C"/>
<path d="M395.494 328.297C395.649 328.297 395.774 328.172 395.774 328.017C395.774 327.863 395.649 327.738 395.494 327.738C395.34 327.738 395.215 327.863 395.215 328.017C395.215 328.172 395.34 328.297 395.494 328.297Z" fill="#30292C"/>
<path d="M364.459 356.956C359.566 356.956 355.605 352.995 355.605 348.102V278.668H373.313V348.102C373.313 352.995 369.352 356.956 364.459 356.956Z" fill="white"/>
<path d="M364.459 356.956C359.566 356.956 355.605 352.995 355.605 348.102V278.668H373.313V348.102C373.313 352.995 369.352 356.956 364.459 356.956Z" stroke="#30292C" stroke-width="4" stroke-miterlimit="10" stroke-linecap="round" stroke-linejoin="round"/>
<path d="M371.821 262.032H357.142V278.668H371.821V262.032Z" fill="#CE7867"/>
<path d="M371.821 262.032H357.142V278.668H371.821V262.032Z" stroke="#30292C" stroke-width="4" stroke-miterlimit="10" stroke-linecap="round" stroke-linejoin="round"/>
<path d="M374.711 271.212H354.207C352.156 271.212 350.479 272.89 350.479 274.94C350.479 276.99 352.156 278.668 354.207 278.668H374.711C376.761 278.668 378.439 276.99 378.439 274.94C378.439 272.89 376.761 271.212 374.711 271.212Z" fill="#D8D8D8"/>
<path d="M374.711 271.212H354.207C352.156 271.212 350.479 272.89 350.479 274.94C350.479 276.99 352.156 278.668 354.207 278.668H374.711C376.761 278.668 378.439 276.99 378.439 274.94C378.439 272.89 376.761 271.212 374.711 271.212Z" stroke="#30292C" stroke-width="4" stroke-miterlimit="10" stroke-linecap="round" stroke-linejoin="round"/>
<path d="M359.799 298.24V348.102C359.799 350.665 361.896 352.762 364.459 352.762C367.022 352.762 369.119 350.665 369.119 348.102V298.24H359.799Z" fill="#5CECFF"/>
<path d="M359.799 298.24V348.102C359.799 350.665 361.896 352.762 364.459 352.762C367.022 352.762 369.119 350.665 369.119 348.102V298.24H359.799Z" stroke="#30292C" stroke-width="4" stroke-miterlimit="10" stroke-linecap="round" stroke-linejoin="round"/>
<path d="M361.523 313.618C362.295 313.618 362.921 312.992 362.921 312.22C362.921 311.448 362.295 310.822 361.523 310.822C360.751 310.822 360.125 311.448 360.125 312.22C360.125 312.992 360.751 313.618 361.523 313.618Z" fill="#30292C"/>
<path d="M361.523 289.759C362.81 289.759 363.853 288.716 363.853 287.429C363.853 286.142 362.81 285.099 361.523 285.099C360.236 285.099 359.193 286.142 359.193 287.429C359.193 288.716 360.236 289.759 361.523 289.759Z" fill="#5CECFF"/>
<path d="M361.523 289.759C362.81 289.759 363.853 288.716 363.853 287.429C363.853 286.142 362.81 285.099 361.523 285.099C360.236 285.099 359.193 286.142 359.193 287.429C359.193 288.716 360.236 289.759 361.523 289.759Z" stroke="#30292C" stroke-width="4" stroke-miterlimit="10" stroke-linecap="round" stroke-linejoin="round"/>
<path d="M367.394 320.608C367.909 320.608 368.326 320.191 368.326 319.676C368.326 319.161 367.909 318.744 367.394 318.744C366.88 318.744 366.462 319.161 366.462 319.676C366.462 320.191 366.88 320.608 367.394 320.608Z" fill="#30292C"/>
<path d="M363.713 344.933C364.176 344.933 364.552 344.558 364.552 344.094C364.552 343.631 364.176 343.256 363.713 343.256C363.25 343.256 362.874 343.631 362.874 344.094C362.874 344.558 363.25 344.933 363.713 344.933Z" fill="#30292C"/>
<path d="M364.179 340.693C364.925 340.693 365.53 340.088 365.53 339.341C365.53 338.595 364.925 337.99 364.179 337.99C363.433 337.99 362.828 338.595 362.828 339.341C362.828 340.088 363.433 340.693 364.179 340.693Z" fill="#30292C"/>
<path d="M171.302 318.278C170.509 318.278 169.857 317.626 169.857 316.833V311.754H158.673V316.833C158.673 317.626 158.021 318.278 157.228 318.278H156.762C153.547 318.278 150.984 320.888 150.984 324.056V353.554C150.984 356.35 153.221 358.587 156.017 358.587H172.047C174.843 358.587 177.08 356.35 177.08 353.554V324.056C177.08 320.888 174.47 318.278 171.302 318.278Z" fill="white"/>
<path d="M171.302 318.278C170.509 318.278 169.857 317.626 169.857 316.833V311.754H158.673V316.833C158.673 317.626 158.021 318.278 157.228 318.278H156.762C153.547 318.278 150.984 320.888 150.984 324.056V353.554C150.984 356.35 153.221 358.587 156.017 358.587H172.047C174.843 358.587 177.08 356.35 177.08 353.554V324.056C177.08 320.888 174.47 318.278 171.302 318.278Z" stroke="#30292C" stroke-width="4" stroke-miterlimit="10" stroke-linecap="round" stroke-linejoin="round"/>
<path d="M154.712 311.754V307.187C154.712 306.115 155.597 305.23 156.669 305.23H172.327C173.399 305.23 174.284 306.115 174.284 307.187V311.754" fill="#CCCCCC"/>
<path d="M174.284 311.754H154.712V307.187C154.712 306.115 155.597 305.23 156.669 305.23H172.327C173.399 305.23 174.284 306.115 174.284 307.187V311.754Z" stroke="#30292C" stroke-width="4" stroke-miterlimit="10" stroke-linecap="round" stroke-linejoin="round"/>
<path d="M173.305 326.2C173.166 325.175 172.327 324.336 171.255 324.336C170.836 324.336 170.416 324.476 170.09 324.709C170.043 322.938 168.599 321.54 166.828 321.54C165.011 321.54 163.566 322.985 163.566 324.802C163.566 325.315 163.566 325.734 163.566 325.501C163.566 324.103 162.401 322.938 161.003 322.938C159.605 322.938 158.44 324.103 158.44 325.501C158.44 325.734 157.974 326.06 157.974 325.967C157.974 325.082 157.228 324.336 156.343 324.336C155.458 324.336 154.712 325.082 154.712 325.967C154.712 326.06 154.712 326.107 154.759 326.2H154.712V353.554C154.712 354.253 155.271 354.859 156.017 354.859H172.047C172.746 354.859 173.352 354.3 173.352 353.554L173.305 326.2Z" fill="#5CECFF"/>
<path d="M159.232 333.19C159.979 333.19 160.584 332.585 160.584 331.839C160.584 331.092 159.979 330.487 159.232 330.487C158.486 330.487 157.881 331.092 157.881 331.839C157.881 332.585 158.486 333.19 159.232 333.19Z" fill="#30292C"/>
<path d="M164.451 338.968C164.734 338.968 164.964 338.739 164.964 338.456C164.964 338.173 164.734 337.943 164.451 337.943C164.168 337.943 163.939 338.173 163.939 338.456C163.939 338.739 164.168 338.968 164.451 338.968Z" fill="#30292C"/>
<path d="M163.985 318.464C164.268 318.464 164.498 318.235 164.498 317.952C164.498 317.669 164.268 317.439 163.985 317.439C163.702 317.439 163.473 317.669 163.473 317.952C163.473 318.235 163.702 318.464 163.985 318.464Z" fill="#30292C"/>
<path d="M160.956 319.862C161.111 319.862 161.236 319.737 161.236 319.583C161.236 319.428 161.111 319.303 160.956 319.303C160.802 319.303 160.677 319.428 160.677 319.583C160.677 319.737 160.802 319.862 160.956 319.862Z" fill="#30292C"/>
<path d="M168.878 349.22C169.29 349.22 169.624 348.887 169.624 348.475C169.624 348.063 169.29 347.729 168.878 347.729C168.467 347.729 168.133 348.063 168.133 348.475C168.133 348.887 168.467 349.22 168.878 349.22Z" fill="#30292C"/>
<path d="M167.713 331.978C167.996 331.978 168.226 331.749 168.226 331.466C168.226 331.183 167.996 330.953 167.713 330.953C167.43 330.953 167.201 331.183 167.201 331.466C167.201 331.749 167.43 331.978 167.713 331.978Z" fill="#30292C"/>
<path d="M173.305 326.2C173.166 325.175 172.327 324.336 171.255 324.336C170.836 324.336 170.416 324.476 170.09 324.709C170.043 322.938 168.599 321.54 166.828 321.54C165.011 321.54 163.566 322.985 163.566 324.802C163.566 325.315 163.566 325.734 163.566 325.501C163.566 324.103 162.401 322.938 161.003 322.938C159.605 322.938 158.44 324.103 158.44 325.501C158.44 325.734 157.974 326.06 157.974 325.967C157.974 325.082 157.228 324.336 156.343 324.336C155.458 324.336 154.712 325.082 154.712 325.967C154.712 326.06 154.712 326.107 154.759 326.2H154.712V353.554C154.712 354.253 155.271 354.859 156.017 354.859H172.047C172.746 354.859 173.352 354.3 173.352 353.554L173.305 326.2Z" stroke="#30292C" stroke-width="4" stroke-miterlimit="10" stroke-linecap="round" stroke-linejoin="round"/>
<path d="M307.653 339.248H201.871C198.283 339.248 195.347 342.184 195.347 345.772V352.296C195.347 355.884 198.283 358.82 201.871 358.82H206.671C207.743 355.325 211.005 352.762 214.873 352.762H294.652C298.52 352.762 301.782 355.325 302.853 358.82H307.653C311.241 358.82 314.177 355.884 314.177 352.296V345.772C314.177 342.184 311.288 339.248 307.653 339.248Z" fill="#CCCCCC"/>
<path d="M307.653 339.248H201.871C198.283 339.248 195.347 342.184 195.347 345.772V352.296C195.347 355.884 198.283 358.82 201.871 358.82H206.671C207.743 355.325 211.005 352.762 214.873 352.762H294.652C298.52 352.762 301.782 355.325 302.853 358.82H307.653C311.241 358.82 314.177 355.884 314.177 352.296V345.772C314.177 342.184 311.288 339.248 307.653 339.248Z" stroke="#30292C" stroke-width="4" stroke-miterlimit="10" stroke-linecap="round" stroke-linejoin="round"/>
<path d="M130.573 286.124C126.193 286.124 122.651 282.582 122.651 278.202V271.212H104.011V278.202C104.011 282.582 100.47 286.124 96.0892 286.124C89.8914 286.124 84.9052 291.11 84.9052 297.308V347.636C84.9052 353.834 89.8914 358.82 96.0892 358.82H130.573C136.771 358.82 141.757 353.834 141.757 347.636V297.308C141.757 291.11 136.724 286.124 130.573 286.124Z" fill="white"/>
<path d="M118.83 301.036C119.731 301.036 120.461 300.306 120.461 299.405C120.461 298.504 119.731 297.774 118.83 297.774C117.929 297.774 117.199 298.504 117.199 299.405C117.199 300.306 117.929 301.036 118.83 301.036Z" fill="#FF415B"/>
<path d="M118.83 301.036C119.731 301.036 120.461 300.306 120.461 299.405C120.461 298.504 119.731 297.774 118.83 297.774C117.929 297.774 117.199 298.504 117.199 299.405C117.199 300.306 117.929 301.036 118.83 301.036Z" stroke="#30292C" stroke-width="4" stroke-miterlimit="10" stroke-linecap="round" stroke-linejoin="round"/>
<path d="M88.6332 300.57V347.636C88.6332 351.737 91.9884 355.092 96.0892 355.092H130.573C134.674 355.092 138.029 351.737 138.029 347.636V300.57H88.6332Z" fill="#FF415B"/>
<path d="M130.573 286.124C126.193 286.124 122.651 282.582 122.651 278.202V271.212H104.011V278.202C104.011 282.582 100.47 286.124 96.0892 286.124C89.8914 286.124 84.9052 291.11 84.9052 297.308V347.636C84.9052 353.834 89.8914 358.82 96.0892 358.82H130.573C136.771 358.82 141.757 353.834 141.757 347.636V297.308C141.757 291.11 136.724 286.124 130.573 286.124Z" stroke="#30292C" stroke-width="4" stroke-miterlimit="10" stroke-linecap="round" stroke-linejoin="round"/>
<path d="M126.845 263.756H99.8172V276.804H126.845V263.756Z" fill="#8E5645"/>
<path d="M104.85 263.756H102.054V276.804H104.85V263.756Z" fill="#AE6553"/>
<path d="M111.514 263.756H108.718V276.804H111.514V263.756Z" fill="#AE6553"/>
<path d="M118.224 263.756H115.428V276.804H118.224V263.756Z" fill="#AE6553"/>
<path d="M124.888 263.756H122.092V276.804H124.888V263.756Z" fill="#AE6553"/>
<path d="M125.354 263.756H101.262V262.684C101.262 260.96 102.66 259.562 104.384 259.562H122.232C123.956 259.562 125.354 260.96 125.354 262.684V263.756Z" fill="#8E5645"/>
<path d="M126.845 263.756H99.8172V276.804H126.845V263.756Z" stroke="#30292C" stroke-width="4" stroke-miterlimit="10" stroke-linecap="round" stroke-linejoin="round"/>
<path d="M125.354 263.756H101.262V262.684C101.262 260.96 102.66 259.562 104.384 259.562H122.232C123.956 259.562 125.354 260.96 125.354 262.684V263.756Z" stroke="#30292C" stroke-width="4" stroke-miterlimit="10" stroke-linecap="round" stroke-linejoin="round"/>
<path d="M88.6332 300.57V347.636C88.6332 351.737 91.9884 355.092 96.0892 355.092H130.573C134.674 355.092 138.029 351.737 138.029 347.636V300.57H88.6332Z" stroke="#30292C" stroke-width="4" stroke-miterlimit="10" stroke-linecap="round" stroke-linejoin="round"/>
<path d="M131.039 307.094H95.6232V333.19H131.039V307.094Z" fill="#FFC25D"/>
<path d="M131.039 307.094H95.6232V333.19H131.039V307.094Z" stroke="#30292C" stroke-width="4" stroke-miterlimit="10" stroke-linecap="round" stroke-linejoin="round"/>
<path d="M92.501 336.499C92.9128 336.499 93.2466 336.165 93.2466 335.753C93.2466 335.341 92.9128 335.007 92.501 335.007C92.0892 335.007 91.7554 335.341 91.7554 335.753C91.7554 336.165 92.0892 336.499 92.501 336.499Z" fill="#30292C"/>
<path d="M106.201 341.531C106.871 341.531 107.413 340.989 107.413 340.32C107.413 339.651 106.871 339.108 106.201 339.108C105.532 339.108 104.99 339.651 104.99 340.32C104.99 340.989 105.532 341.531 106.201 341.531Z" fill="#30292C"/>
<path d="M111.654 348.149C112.632 348.149 113.424 347.356 113.424 346.378C113.424 345.4 112.632 344.607 111.654 344.607C110.676 344.607 109.883 345.4 109.883 346.378C109.883 347.356 110.676 348.149 111.654 348.149Z" fill="#30292C"/>
<path d="M128.43 342.091C129.408 342.091 130.2 341.298 130.2 340.32C130.2 339.342 129.408 338.549 128.43 338.549C127.452 338.549 126.659 339.342 126.659 340.32C126.659 341.298 127.452 342.091 128.43 342.091Z" fill="#30292C"/>
<path d="M101.588 314.084H125.354" stroke="#30292C" stroke-width="4" stroke-miterlimit="10" stroke-linecap="round" stroke-linejoin="round"/>
<path d="M112.306 320.142H125.354" stroke="#30292C" stroke-width="4" stroke-miterlimit="10" stroke-linecap="round" stroke-linejoin="round"/>
<path d="M112.306 325.268H125.354" stroke="#30292C" stroke-width="4" stroke-miterlimit="10" stroke-linecap="round" stroke-linejoin="round"/>
<path d="M104.85 326.2C106.652 326.2 108.112 324.74 108.112 322.938C108.112 321.136 106.652 319.676 104.85 319.676C103.048 319.676 101.588 321.136 101.588 322.938C101.588 324.74 103.048 326.2 104.85 326.2Z" stroke="#30292C" stroke-width="4" stroke-miterlimit="10" stroke-linecap="round" stroke-linejoin="round"/>
<path d="M109.976 294.046C111.237 294.046 112.259 293.024 112.259 291.763C112.259 290.502 111.237 289.479 109.976 289.479C108.715 289.479 107.693 290.502 107.693 291.763C107.693 293.024 108.715 294.046 109.976 294.046Z" fill="#FF415B"/>
<path d="M109.976 294.046C111.237 294.046 112.259 293.024 112.259 291.763C112.259 290.502 111.237 289.479 109.976 289.479C108.715 289.479 107.693 290.502 107.693 291.763C107.693 293.024 108.715 294.046 109.976 294.046Z" stroke="#30292C" stroke-width="4" stroke-miterlimit="10" stroke-linecap="round" stroke-linejoin="round"/>
<path d="M119.616 288.7C119.698 288.192 119.353 287.713 118.845 287.631C118.337 287.548 117.858 287.894 117.776 288.402C117.694 288.91 118.039 289.388 118.547 289.471C119.055 289.553 119.533 289.208 119.616 288.7Z" stroke="#30292C" stroke-width="4" stroke-miterlimit="10" stroke-linecap="round" stroke-linejoin="round"/>
<path d="M130.853 296.05C131.599 296.05 132.204 295.445 132.204 294.698C132.204 293.952 131.599 293.347 130.853 293.347C130.106 293.347 129.501 293.952 129.501 294.698C129.501 295.445 130.106 296.05 130.853 296.05Z" fill="#30292C"/>
<path d="M95.4368 297.914C96.1832 297.914 96.7882 297.309 96.7882 296.562C96.7882 295.816 96.1832 295.211 95.4368 295.211C94.6904 295.211 94.0854 295.816 94.0854 296.562C94.0854 297.309 94.6904 297.914 95.4368 297.914Z" fill="#30292C"/>
<path d="M297.634 264.082C288.035 281.231 269.674 292.881 248.611 292.881C217.575 292.881 192.458 267.764 192.458 236.728C192.458 207.883 214.22 184.117 242.227 180.948L240.316 169.764C207.556 175.542 182.672 204.155 182.672 238.592C182.672 277.177 213.987 308.492 252.572 308.492C279.926 308.492 303.599 292.788 315.109 269.861L297.634 264.082Z" fill="#CCCCCC"/>
<path d="M297.634 264.082C288.035 281.231 269.674 292.881 248.611 292.881C217.575 292.881 192.458 267.764 192.458 236.728C192.458 207.883 214.22 184.117 242.227 180.948L240.316 169.764C207.556 175.542 182.672 204.155 182.672 238.592C182.672 277.177 213.987 308.492 252.572 308.492C279.926 308.492 303.599 292.788 315.109 269.861L297.634 264.082Z" stroke="#30292C" stroke-width="4" stroke-miterlimit="10" stroke-linecap="round" stroke-linejoin="round"/>
<path d="M258.723 339.248H217.715V295.444C217.715 284.12 226.895 274.94 238.219 274.94C249.543 274.94 258.723 284.12 258.723 295.444V339.248Z" fill="white"/>
<path d="M238.219 307.793C245.168 307.793 250.801 302.16 250.801 295.211C250.801 288.262 245.168 282.629 238.219 282.629C231.27 282.629 225.637 288.262 225.637 295.211C225.637 302.16 231.27 307.793 238.219 307.793Z" fill="#00C899"/>
<path d="M238.219 300.803C241.308 300.803 243.811 298.299 243.811 295.211C243.811 292.123 241.308 289.619 238.219 289.619C235.131 289.619 232.627 292.123 232.627 295.211C232.627 298.299 235.131 300.803 238.219 300.803Z" fill="#00C899"/>
<path d="M258.723 339.248H217.715V295.444C217.715 284.12 226.895 274.94 238.219 274.94C249.543 274.94 258.723 284.12 258.723 295.444V339.248Z" stroke="#30292C" stroke-width="4" stroke-miterlimit="10" stroke-linecap="round" stroke-linejoin="round"/>
<path d="M238.219 307.793C245.168 307.793 250.801 302.16 250.801 295.211C250.801 288.262 245.168 282.629 238.219 282.629C231.27 282.629 225.637 288.262 225.637 295.211C225.637 302.16 231.27 307.793 238.219 307.793Z" stroke="#30292C" stroke-width="4" stroke-miterlimit="10" stroke-linecap="round" stroke-linejoin="round"/>
<path d="M238.219 300.803C241.308 300.803 243.811 298.299 243.811 295.211C243.811 292.123 241.308 289.619 238.219 289.619C235.131 289.619 232.627 292.123 232.627 295.211C232.627 298.299 235.131 300.803 238.219 300.803Z" fill="#959595"/>
<path d="M238.219 300.803C241.308 300.803 243.811 298.299 243.811 295.211C243.811 292.123 241.308 289.619 238.219 289.619C235.131 289.619 232.627 292.123 232.627 295.211C232.627 298.299 235.131 300.803 238.219 300.803Z" stroke="#30292C" stroke-width="4" stroke-miterlimit="10" stroke-linecap="round" stroke-linejoin="round"/>
<path d="M308.026 278.202C314.975 278.202 320.608 272.569 320.608 265.62C320.608 258.671 314.975 253.038 308.026 253.038C301.077 253.038 295.444 258.671 295.444 265.62C295.444 272.569 301.077 278.202 308.026 278.202Z" fill="white"/>
<path d="M308.026 278.202C314.975 278.202 320.608 272.569 320.608 265.62C320.608 258.671 314.975 253.038 308.026 253.038C301.077 253.038 295.444 258.671 295.444 265.62C295.444 272.569 301.077 278.202 308.026 278.202Z" stroke="#30292C" stroke-width="4" stroke-miterlimit="10" stroke-linecap="round" stroke-linejoin="round"/>
<path d="M308.026 271.212C311.114 271.212 313.618 268.708 313.618 265.62C313.618 262.532 311.114 260.028 308.026 260.028C304.938 260.028 302.434 262.532 302.434 265.62C302.434 268.708 304.938 271.212 308.026 271.212Z" fill="#959595"/>
<path d="M308.026 271.212C311.114 271.212 313.618 268.708 313.618 265.62C313.618 262.532 311.114 260.028 308.026 260.028C304.938 260.028 302.434 262.532 302.434 265.62C302.434 268.708 304.938 271.212 308.026 271.212Z" stroke="#30292C" stroke-width="4" stroke-miterlimit="10" stroke-linecap="round" stroke-linejoin="round"/>
<path d="M252.26 127.578L234.174 132.087L238.063 147.686L256.149 143.177L252.26 127.578Z" fill="#00B2C8"/>
<path d="M254.529 127.032L231.835 132.67C230.903 132.903 229.971 132.391 229.645 131.505L226.895 124.282L254.949 117.292L255.927 124.981C256.067 125.913 255.461 126.799 254.529 127.032Z" fill="white"/>
<path d="M259.283 142.379L234.867 148.467L257.412 238.899L281.828 232.811L259.283 142.379Z" fill="white"/>
<path d="M259.283 142.379L234.867 148.467L257.412 238.899L281.828 232.811L259.283 142.379Z" stroke="#30292C" stroke-width="4" stroke-miterlimit="10" stroke-linecap="round" stroke-linejoin="round"/>
<path d="M279.205 222.195L254.788 228.283L257.437 238.908L281.854 232.821L279.205 222.195Z" fill="#959595"/>
<path d="M279.205 222.195L254.788 228.283L257.437 238.908L281.854 232.821L279.205 222.195Z" stroke="#30292C" stroke-width="4" stroke-miterlimit="10" stroke-linecap="round" stroke-linejoin="round"/>
<path d="M252.26 127.578L234.174 132.087L238.063 147.686L256.149 143.177L252.26 127.578Z" stroke="#30292C" stroke-width="4" stroke-miterlimit="10" stroke-linecap="round" stroke-linejoin="round"/>
<path d="M254.529 127.032L231.835 132.67C230.903 132.903 229.971 132.391 229.645 131.505L226.895 124.282L254.949 117.292L255.927 124.981C256.067 125.913 255.461 126.799 254.529 127.032Z" stroke="#30292C" stroke-width="4" stroke-miterlimit="10" stroke-linecap="round" stroke-linejoin="round"/>
<path d="M268.183 203.129L270.839 213.708" stroke="#30292C" stroke-width="4" stroke-miterlimit="10" stroke-linecap="round" stroke-linejoin="round"/>
<path d="M254.483 148.141L264.315 187.472" stroke="#30292C" stroke-width="4" stroke-miterlimit="10" stroke-linecap="round" stroke-linejoin="round"/>
<path d="M248.238 132.717L250.242 140.825" stroke="#30292C" stroke-width="4" stroke-miterlimit="10" stroke-linecap="round" stroke-linejoin="round"/>
<path d="M239.99 187.798C246.939 187.798 252.572 182.165 252.572 175.216C252.572 168.267 246.939 162.634 239.99 162.634C233.041 162.634 227.408 168.267 227.408 175.216C227.408 182.165 233.041 187.798 239.99 187.798Z" fill="white"/>
<path d="M239.99 187.798C246.939 187.798 252.572 182.165 252.572 175.216C252.572 168.267 246.939 162.634 239.99 162.634C233.041 162.634 227.408 168.267 227.408 175.216C227.408 182.165 233.041 187.798 239.99 187.798Z" stroke="#30292C" stroke-width="4" stroke-miterlimit="10" stroke-linecap="round" stroke-linejoin="round"/>
<path d="M239.99 180.808C243.078 180.808 245.582 178.304 245.582 175.216C245.582 172.128 243.078 169.624 239.99 169.624C236.902 169.624 234.398 172.128 234.398 175.216C234.398 178.304 236.902 180.808 239.99 180.808Z" fill="#959595"/>
<path d="M239.99 180.808C243.078 180.808 245.582 178.304 245.582 175.216C245.582 172.128 243.078 169.624 239.99 169.624C236.902 169.624 234.398 172.128 234.398 175.216C234.398 178.304 236.902 180.808 239.99 180.808Z" stroke="#30292C" stroke-width="4" stroke-miterlimit="10" stroke-linecap="round" stroke-linejoin="round"/>
<path d="M333.656 248.704L257.838 269.162C256.114 269.628 254.296 268.602 253.83 266.878C253.364 265.154 254.389 263.337 256.114 262.871L331.932 242.413C333.656 241.947 335.473 242.972 335.939 244.697C336.405 246.421 335.38 248.192 333.656 248.704Z" fill="white"/>
<path d="M333.656 248.704L257.838 269.162C256.114 269.628 254.296 268.602 253.83 266.878C253.364 265.154 254.389 263.337 256.114 262.871L331.932 242.413C333.656 241.947 335.473 242.972 335.939 244.697C336.405 246.421 335.38 248.192 333.656 248.704Z" stroke="#30292C" stroke-width="4" stroke-miterlimit="10" stroke-linecap="round" stroke-linejoin="round"/>
<path d="M294.605 252.479L259.935 261.845L260.447 257.838L292.182 249.263L294.605 252.479Z" fill="#959595"/>
<path d="M294.605 252.479L259.935 261.845L260.447 257.838L292.182 249.263L294.605 252.479Z" stroke="#30292C" stroke-width="4" stroke-miterlimit="10" stroke-linecap="round" stroke-linejoin="round"/>
<path d="M58.25 358.82H432.914" stroke="#30292C" stroke-width="8" stroke-miterlimit="10" stroke-linecap="round" stroke-linejoin="round"/>
<path d="M364.459 356.956C359.566 356.956 355.605 352.995 355.605 348.102V278.668H373.313V348.102C373.313 352.995 369.352 356.956 364.459 356.956Z" stroke="#30292C" stroke-width="4" stroke-miterlimit="10" stroke-linecap="round" stroke-linejoin="round"/>
<path d="M419.4 345.306H341.578V351.83H355.139C356.397 355.511 359.845 358.121 363.946 358.121C368.047 358.121 371.495 355.511 372.753 351.83H386.733C387.898 355.605 391.44 358.354 395.634 358.354C399.828 358.354 403.323 355.605 404.535 351.83H419.4V345.306Z" fill="#CCCCCC"/>
<path d="M419.4 345.306H341.578V351.83H355.139C356.397 355.511 359.845 358.121 363.946 358.121C368.047 358.121 371.495 355.511 372.753 351.83H386.733C387.898 355.605 391.44 358.354 395.634 358.354C399.828 358.354 403.323 355.605 404.535 351.83H419.4V345.306Z" stroke="#30292C" stroke-width="4" stroke-miterlimit="10" stroke-linecap="round" stroke-linejoin="round"/>
</svg>
